<?xml version="1.0" standalone="no"?>
<!DOCTYPE svg PUBLIC "-//W3C//DTD SVG 20010904//EN"
 "http://www.w3.org/TR/2001/REC-SVG-20010904/DTD/svg10.dtd">
<svg version="1.0" xmlns="http://www.w3.org/2000/svg"
 width="1080.000000pt" height="1080.000000pt" viewBox="0 0 1080.000000 1080.000000"
 preserveAspectRatio="xMidYMid meet">

<g transform="translate(0.000000,1080.000000) scale(0.100000,-0.100000)"
fill="#000000" stroke="none">
<path d="M1304 7445 c7 -3008 12 -3489 40 -3660 67 -414 233 -810 489 -1164
325 -450 849 -899 1492 -1277 214 -125 693 -364 948 -473 367 -156 733 -290
976 -357 l125 -34 133 35 c297 79 839 288 1288 497 555 259 1123 616 1510 951
119 102 374 359 471 472 148 174 285 383 395 605 152 307 234 606 259 955 7
88 13 1311 17 3305 l6 3165 -4078 0 -4078 0 7 -3020z m6304 2925 l1742 0 -3
-3227 c-3 -3518 1 -3259 -56 -3521 -54 -246 -189 -562 -344 -804 -452 -706
-1296 -1334 -2452 -1826 -315 -134 -745 -289 -994 -357 l-123 -34 -109 29
c-246 67 -696 229 -1024 368 -243 103 -732 349 -935 469 -448 268 -737 488
-1045 797 -220 220 -294 308 -420 496 -234 351 -359 671 -422 1080 -16 107
-17 333 -20 3322 l-4 3208 1868 3 c1027 2 2032 2 2233 0 201 -1 1149 -3 2108
-3z"/>
<path d="M7468 9792 c-18 -16 -67 -48 -108 -72 -116 -67 -333 -208 -482 -313
-73 -52 -144 -98 -156 -101 -38 -12 -420 -330 -702 -585 -221 -199 -215 -195
-252 -181 -18 7 -37 16 -41 20 -6 6 20 247 28 258 1 1 33 -15 71 -38 67 -39
69 -39 85 -21 29 35 32 109 8 177 -37 104 -11 134 118 134 60 0 83 7 83 25 0
7 -22 46 -49 88 -55 84 -73 134 -64 180 8 41 84 115 150 147 32 15 52 32 53
42 0 24 -14 30 -47 17 -15 -6 -73 -13 -128 -15 -98 -3 -102 -5 -215 -60 l-115
-56 -37 40 c-71 77 -61 129 35 175 52 25 57 29 47 48 -14 25 -41 21 -160 -27
-46 -19 -91 -34 -100 -34 -8 0 -28 -7 -45 -16 -16 -9 -69 -36 -116 -60 -102
-51 -126 -76 -169 -180 -40 -97 -61 -125 -112 -154 -37 -21 -50 -22 -132 -17
-50 3 -171 22 -269 41 l-178 36 -33 -35 c-31 -33 -50 -40 -102 -36 -11 1 -105
-8 -209 -19 -104 -12 -198 -19 -209 -16 -11 3 -38 0 -58 -6 -48 -14 -100 0
-153 42 -44 35 -77 38 -122 10 -41 -25 -50 -58 -28 -113 38 -95 73 -123 245
-192 108 -43 150 -68 150 -86 0 -4 -17 -13 -37 -18 -127 -36 -309 24 -405 131
l-37 41 -35 -27 c-50 -38 -61 -61 -45 -98 15 -38 86 -92 153 -117 28 -10 119
-28 201 -39 168 -22 225 -40 225 -71 0 -44 -73 -41 -195 8 -85 35 -103 37
-129 18 -44 -32 2 -124 79 -158 26 -12 129 -29 281 -49 211 -27 346 -54 437
-89 l28 -11 -18 -31 c-36 -60 -72 -95 -110 -107 -67 -20 -125 -68 -178 -146
-35 -53 -61 -80 -87 -92 -65 -29 -128 -114 -128 -173 0 -13 -20 -34 -58 -60
-78 -53 -115 -97 -143 -171 -28 -72 -51 -89 -95 -69 -38 18 -120 177 -185 357
-53 144 -69 175 -231 450 -128 216 -143 249 -142 322 0 73 28 125 103 191 79
69 84 84 72 200 -10 103 -29 161 -73 226 -35 52 -73 73 -131 73 -73 0 -76 -17
-12 -76 74 -69 75 -97 5 -143 -79 -51 -80 -53 -80 -140 0 -65 -4 -84 -23 -112
-29 -43 -45 -43 -68 1 -14 26 -19 56 -19 115 0 72 -3 86 -29 126 -38 60 -171
186 -205 195 -53 13 -132 -1 -171 -30 -37 -28 -52 -52 -42 -63 3 -3 29 -7 57
-9 79 -5 130 -39 130 -84 0 -15 -18 -53 -40 -86 -22 -33 -40 -66 -40 -76 0 -9
21 -38 46 -65 61 -64 83 -100 131 -214 48 -115 45 -138 -14 -107 -51 26 -111
19 -160 -18 -20 -15 -59 -39 -85 -52 -72 -36 -102 -86 -106 -177 -3 -52 0 -81
12 -103 19 -37 71 -76 91 -68 23 8 18 32 -10 50 -20 13 -25 25 -25 55 0 47 16
61 72 64 42 2 43 2 58 -43 20 -59 25 -67 62 -86 30 -16 30 -16 76 30 25 25 49
46 54 46 4 0 8 -13 8 -29 0 -62 -21 -135 -56 -191 -45 -73 -47 -115 -9 -172
67 -102 4 -182 -81 -103 -24 22 -30 24 -41 12 -12 -12 -12 -23 0 -76 17 -72
43 -104 103 -127 73 -28 104 -15 180 74 87 100 108 148 100 219 -3 29 -3 53 2
53 4 0 20 -44 35 -97 30 -105 109 -298 236 -573 81 -177 106 -264 89 -310 -17
-47 23 -250 50 -250 5 0 12 -9 15 -20 6 -23 35 -27 43 -6 3 7 -1 39 -9 69 -17
64 -16 65 54 96 100 46 211 13 286 -85 l27 -36 -60 -51 c-32 -28 -115 -105
-184 -172 -69 -66 -195 -173 -280 -237 -85 -64 -194 -146 -241 -181 -95 -71
-139 -97 -166 -97 -31 0 -79 36 -124 93 -51 63 -85 87 -126 87 -44 0 -225 -92
-270 -137 -42 -42 -87 -144 -81 -183 2 -13 16 -32 32 -44 l28 -21 47 53 c25
28 52 52 59 52 7 0 25 -14 41 -32 28 -31 32 -32 124 -38 52 -3 98 -8 101 -11
13 -12 -73 -77 -128 -98 -133 -49 -165 -77 -196 -166 -45 -132 -35 -207 35
-261 32 -24 49 -29 105 -31 78 -3 94 11 54 46 -26 23 -31 58 -12 83 7 8 41 21
76 28 41 9 66 19 73 31 17 33 109 138 129 149 11 6 31 8 45 4 l26 -6 -6 -87
-7 -86 37 -48 c20 -27 70 -75 111 -107 57 -46 86 -61 129 -70 68 -14 90 -10
90 15 0 14 -8 21 -27 23 -33 4 -75 42 -84 76 -4 18 3 41 27 83 42 72 45 143
10 211 -12 24 -21 45 -19 46 49 35 81 46 139 46 35 0 109 7 164 16 55 8 123
12 150 9 39 -4 58 -1 87 15 47 25 88 27 88 4 0 -9 -7 -22 -17 -29 -22 -16 -8
-35 26 -35 17 0 37 11 54 28 105 110 0 264 -188 280 -58 4 -66 2 -118 -31
-131 -84 -219 -110 -234 -70 -9 24 47 69 222 177 274 170 511 293 620 322 61
17 201 17 315 0 73 -10 92 -17 133 -49 26 -20 68 -45 93 -57 64 -28 154 -84
209 -129 26 -22 68 -45 93 -52 50 -14 104 -63 136 -124 17 -31 18 -38 5 -46
-26 -17 -64 -9 -149 31 -99 46 -155 51 -241 21 -30 -10 -92 -23 -137 -30 -102
-13 -129 -27 -218 -110 -40 -36 -94 -85 -122 -109 -31 -26 -61 -64 -78 -97
-26 -53 -26 -59 -19 -169 6 -99 4 -118 -11 -147 -23 -43 -23 -133 0 -174 9
-16 31 -51 50 -76 26 -37 34 -61 40 -110 7 -73 48 -168 95 -221 17 -20 31 -38
31 -42 0 -3 -34 -6 -76 -6 -69 0 -90 6 -232 60 -203 78 -207 82 -208 203 -1
149 0 144 -56 203 -73 77 -155 116 -259 122 l-80 5 -43 -47 c-24 -25 -48 -46
-54 -46 -15 0 -23 -28 -9 -37 6 -4 32 -8 57 -10 104 -5 104 -5 131 -90 22 -73
28 -81 82 -121 31 -24 57 -49 57 -56 0 -25 -57 -27 -103 -5 -31 15 -56 40 -91
91 -65 94 -95 107 -248 110 -89 2 -121 -2 -153 -15 -105 -47 -158 -157 -124
-255 11 -31 40 -49 59 -37 5 3 10 25 10 48 0 55 18 89 52 98 49 13 66 1 85
-57 16 -52 19 -55 71 -74 29 -11 57 -18 61 -15 12 7 131 -14 160 -29 14 -8 39
-26 55 -41 l30 -28 -40 -20 c-21 -11 -61 -26 -88 -33 -26 -7 -66 -25 -88 -39
-45 -30 -108 -122 -138 -202 -27 -71 -16 -116 44 -178 40 -42 46 -45 95 -45
62 0 73 15 41 58 -28 38 -31 99 -5 118 10 8 42 14 69 14 63 0 129 29 152 67
51 82 90 100 136 63 40 -31 106 -140 144 -237 45 -114 73 -156 129 -188 25
-15 45 -30 45 -34 0 -9 -59 -38 -92 -45 -31 -7 -37 -33 -10 -43 9 -4 25 -15
36 -24 39 -37 173 -32 218 8 39 36 51 72 46 149 -6 97 -43 172 -105 216 -47
34 -73 72 -73 108 0 31 58 26 131 -11 33 -16 102 -48 152 -70 51 -23 144 -71
207 -109 222 -130 288 -157 447 -180 128 -19 141 -4 69 80 -25 29 -61 83 -80
120 -55 105 -66 161 -66 350 0 243 19 322 95 388 75 67 171 80 280 38 83 -32
87 -43 86 -230 -1 -114 4 -176 19 -254 11 -56 20 -121 20 -144 0 -30 8 -52 34
-87 18 -25 55 -89 81 -141 26 -52 67 -122 91 -156 24 -33 60 -95 80 -137 l36
-76 -54 -73 c-81 -109 -351 -422 -390 -451 -51 -39 -101 -57 -160 -57 -70 1
-123 26 -198 95 -86 79 -103 84 -235 75 -127 -9 -166 -22 -230 -81 -58 -53
-71 -79 -78 -151 -4 -47 -3 -58 11 -63 15 -5 34 10 44 35 5 12 116 80 130 80
20 -1 103 -101 90 -109 -6 -4 -61 -15 -122 -25 -84 -14 -122 -26 -162 -50 -60
-36 -107 -102 -115 -165 -5 -36 -2 -44 25 -69 16 -15 31 -37 33 -47 5 -23 37
-33 43 -13 2 7 9 33 16 56 15 59 65 111 112 119 34 5 38 3 62 -36 52 -81 81
-86 206 -31 70 31 144 39 179 20 18 -9 18 -12 1 -72 -20 -74 -13 -194 15 -249
40 -79 114 -129 190 -129 39 0 45 3 45 21 0 12 -20 44 -45 70 -64 68 -61 83
25 122 76 34 97 60 114 142 19 90 41 111 129 120 54 6 76 3 148 -21 71 -23
101 -27 194 -27 63 -1 122 5 138 11 l29 12 -7 -59 -7 -59 30 -7 c18 -4 44 0
66 9 79 33 101 173 40 258 -69 96 -159 127 -279 93 -99 -28 -114 -29 -135 -10
-26 24 -25 30 10 75 31 39 301 291 453 423 119 104 133 111 252 117 84 4 105
9 133 28 37 27 86 115 77 141 -5 17 -9 17 -61 4 -50 -13 -58 -13 -92 4 -29 14
-45 34 -77 94 -22 42 -60 98 -84 125 -55 63 -77 105 -91 181 -11 63 -3 148 19
205 14 38 260 449 285 476 18 20 21 21 29 6 5 -9 9 -55 9 -102 0 -48 13 -188
30 -312 44 -340 79 -486 149 -620 92 -177 219 -279 414 -331 118 -32 319 -32
429 -1 212 61 367 186 489 394 58 98 75 145 98 261 39 200 13 557 -62 855 -30
119 -39 166 -31 174 7 7 39 10 76 9 73 -3 128 17 184 63 43 37 41 52 -9 59
-126 17 -203 172 -179 361 12 92 32 149 118 326 89 184 145 335 137 367 -12
48 -34 39 -123 -49 -48 -47 -130 -117 -183 -156 -367 -268 -536 -544 -556
-903 -8 -156 5 -199 62 -199 27 0 48 24 119 135 47 73 49 75 63 55 8 -12 21
-58 29 -103 18 -105 39 -197 75 -322 60 -210 73 -374 44 -551 -27 -167 -71
-282 -125 -328 -27 -22 -41 -26 -96 -26 -71 0 -74 -3 -104 -98 -27 -85 -91
-110 -244 -98 -101 8 -188 47 -242 109 -41 47 -149 263 -161 323 -12 56 -6 76
34 123 47 55 41 79 -30 117 l-54 28 -7 150 c-15 337 -69 593 -175 828 l-30 67
41 36 c23 19 50 35 61 35 34 0 15 34 -23 41 -57 9 -115 45 -142 89 -26 40 -81
294 -74 335 l7 35 132 -67 c116 -59 143 -78 224 -156 101 -97 129 -144 136
-225 5 -50 20 -82 37 -82 4 0 20 23 35 52 29 56 29 62 5 221 -27 182 50 465
191 702 73 123 146 208 222 258 83 55 101 57 147 12 21 -21 44 -52 51 -69 28
-69 59 -50 59 36 0 68 -7 85 -63 148 -72 83 -82 111 -81 235 1 148 31 286 99
454 104 259 221 405 392 494 64 33 103 47 131 47 25 0 42 5 45 14 7 17 -11 36
-34 36 -26 0 -129 49 -181 87 -32 23 -56 51 -74 90 -25 51 -28 65 -26 163 4
307 148 665 379 942 74 89 112 123 159 143 30 12 34 18 34 50 l0 37 -52 -7
c-72 -9 -409 -167 -808 -379 -91 -48 -179 -96 -196 -107 l-31 -19 -53 33 c-75
44 -104 89 -96 146 11 81 75 195 184 325 59 71 82 112 69 125 -16 16 -23 14
-59 -17z m-4752 -668 c4 -17 1 -31 -10 -42 -15 -15 -16 -13 -16 26 0 47 16 56
26 16z m490 -36 c-3 -13 -6 -31 -6 -40 0 -10 -7 -18 -15 -18 -11 0 -15 11 -15
40 0 34 3 40 21 40 17 0 20 -4 15 -22z m1602 -49 c-2 -6 -22 -22 -45 -36 l-41
-24 5 23 c10 45 13 48 49 48 22 0 34 -4 32 -11z m45 -116 c-7 -2 -21 -2 -30 0
-10 3 -4 5 12 5 17 0 24 -2 18 -5z m-793 -103 c0 -5 -4 -10 -10 -10 -5 0 -10
5 -10 10 0 6 5 10 10 10 6 0 10 -4 10 -10z m148 -8 c2 -7 -3 -12 -12 -12 -9 0
-16 7 -16 16 0 17 22 14 28 -4z m382 -102 c0 -5 -7 -10 -15 -10 -8 0 -15 5
-15 10 0 6 7 10 15 10 8 0 15 -4 15 -10z m-40 -62 c101 -29 170 -88 170 -144
0 -21 -5 -18 -47 24 -37 37 -72 58 -150 91 -57 24 -103 45 -103 48 0 7 86 -6
130 -19z m-285 -4 c18 -8 40 -23 49 -33 14 -16 10 -16 -74 -2 -50 9 -90 18
-90 22 0 9 42 28 63 28 11 1 34 -6 52 -15z m2055 -147 c0 -2 -15 -16 -32 -33
l-33 -29 29 33 c28 30 36 37 36 29z m-3780 -77 c0 -5 -18 -10 -40 -10 -22 0
-40 5 -40 10 0 6 18 10 40 10 22 0 40 -4 40 -10z m261 -713 c-6 -15 -22 -32
-36 -37 -54 -21 -57 -11 -13 45 37 47 44 53 51 37 5 -10 4 -30 -2 -45z m2689
-9 c6 -24 15 -59 21 -78 36 -139 -26 -240 -149 -240 -43 0 -57 5 -78 26 -22
21 -25 31 -19 62 11 57 49 124 116 201 72 84 93 90 109 29z m-3015 -1685 c26
-12 35 -23 33 -37 -2 -16 -20 -24 -90 -42 -87 -21 -88 -22 -88 -2 0 28 62 84
107 97 1 1 18 -7 38 -16z m3380 -113 c10 -11 16 -20 13 -20 -3 0 -13 9 -23 20
-10 11 -16 20 -13 20 3 0 13 -9 23 -20z m-2117 -43 c27 -25 28 -37 3 -37 -11
0 -29 13 -40 28 -18 26 -18 29 -3 29 9 0 27 -9 40 -20z m-1248 -374 c-1 -5
-16 -37 -34 -72 l-33 -65 -17 27 c-27 40 -17 79 24 99 37 19 60 23 60 11z
m1138 -336 c45 -41 18 -73 -40 -46 -29 13 -61 56 -53 70 10 15 66 1 93 -24z
m-354 -189 c15 -22 22 -58 11 -58 -14 0 -104 68 -98 73 16 16 72 6 87 -15z
m20 -603 c-17 -26 -39 -29 -39 -6 0 7 11 28 25 46 24 32 25 33 28 10 2 -13 -4
-36 -14 -50z m856 -330 c0 -24 -5 -35 -15 -35 -10 0 -15 11 -15 35 0 24 5 35
15 35 10 0 15 -11 15 -35z m499 -791 c54 -11 38 -34 -24 -34 -48 0 -55 2 -55
20 0 22 21 25 79 14z m1305 -337 c10 -21 17 -40 15 -42 -3 -2 -31 12 -64 30
-57 33 -59 34 -35 44 42 17 64 9 84 -32z m-1460 18 c4 -10 -4 -17 -27 -23 -52
-14 -68 8 -19 26 37 14 39 14 46 -3z"/>
<path d="M2120 1170 c-24 -25 -25 -32 -22 -121 4 -109 13 -134 43 -119 17 10
18 13 4 26 -21 21 -21 132 0 140 8 4 15 10 15 15 0 5 -7 9 -15 9 -8 0 -15 9
-15 20 0 15 7 20 25 20 14 0 29 8 35 20 10 18 8 20 -17 19 -16 -1 -38 -13 -53
-29z"/>
<path d="M565 1180 c-103 -9 -230 -37 -278 -61 l-37 -19 0 -321 0 -320 44 -47
c80 -85 287 -190 392 -200 97 -8 310 83 417 179 l57 51 0 332 0 333 -37 16
c-58 26 -158 46 -284 57 -124 11 -153 11 -274 0z m285 -97 c3 -2 -3 -9 -13
-14 -9 -6 -17 -17 -17 -24 0 -8 -6 -15 -14 -15 -12 0 -12 -5 -3 -30 10 -25 8
-36 -8 -66 -11 -20 -28 -39 -40 -44 -33 -12 -145 -20 -145 -11 0 20 37 53 75
66 l40 14 -37 1 c-46 0 -51 20 -5 20 l32 1 -24 20 c-14 11 -31 17 -42 14 -14
-5 -19 -1 -19 14 0 22 61 58 80 46 6 -4 16 -2 23 3 23 19 100 23 117 5z m167
-3 c-3 -11 -1 -18 3 -15 13 8 22 -13 15 -35 -6 -20 -45 -45 -95 -61 -21 -7 37
-4 84 4 20 4 16 -24 -8 -48 -20 -19 -36 -25 -73 -26 -36 0 -43 -3 -28 -9 11
-5 35 -9 53 -9 37 -1 40 -10 13 -35 -22 -20 -51 -24 -96 -13 l-30 7 28 -16
c23 -12 26 -18 16 -30 -15 -19 -49 -18 -79 3 l-25 16 24 -26 c21 -23 22 -27 7
-33 -10 -4 -30 4 -51 20 -47 36 -45 16 2 -22 35 -28 36 -31 25 -57 -11 -23
-10 -30 8 -52 12 -16 18 -34 15 -45 -4 -10 -2 -18 4 -18 22 0 10 -33 -29 -79
-22 -26 -40 -53 -40 -59 0 -9 -5 -10 -18 -3 -9 5 -29 7 -43 4 -24 -4 -26 -2
-22 21 3 14 0 33 -7 41 -13 16 -13 16 41 19 24 2 49 26 49 48 0 11 -14 36 -31
56 -23 26 -30 41 -26 61 13 64 13 64 -21 73 -18 5 -30 13 -27 18 8 13 -58 0
-66 -13 -4 -5 -11 -2 -16 8 -11 19 -60 17 -55 -3 3 -16 -16 -52 -27 -52 -5 0
-12 19 -16 43 -4 23 -13 49 -20 57 -16 20 -28 70 -16 70 5 0 13 -5 16 -10 9
-15 27 -1 21 16 -3 8 -1 14 5 14 5 0 12 -7 16 -16 4 -11 8 -12 13 -4 4 7 13 9
19 5 11 -6 9 -21 -6 -62 -3 -7 3 -10 16 -6 11 3 17 11 15 17 -4 10 21 15 92
20 109 7 146 23 168 71 8 16 14 48 14 69 0 49 15 62 89 71 31 4 66 11 77 15
29 12 29 12 23 -10z m-497 -15 c0 -19 19 -19 26 0 4 8 10 12 15 9 15 -9 10
-37 -11 -59 l-20 -22 21 -19 c16 -14 23 -15 26 -6 7 18 21 15 33 -7 9 -17 3
-47 -16 -79 -1 -1 -13 3 -28 9 -18 9 -25 18 -21 29 7 23 -26 36 -37 15 -12
-21 -45 -19 -43 3 0 9 5 23 9 30 5 8 2 20 -7 30 -20 23 -30 59 -18 66 5 4 12
2 16 -4 10 -16 38 -12 31 5 -3 9 0 15 9 15 8 0 15 -7 15 -15z m441 -269 c-8
-10 -9 -16 -1 -21 5 -3 10 -18 10 -33 -1 -25 -2 -25 -14 -9 -7 9 -20 17 -29
17 -28 0 -30 -21 -3 -49 14 -15 26 -34 26 -42 0 -23 -30 -46 -70 -52 -33 -4
-36 -2 -53 33 -16 34 -15 70 2 70 4 0 18 -11 31 -25 13 -14 28 -25 34 -25 5 0
-6 17 -27 38 l-36 37 37 25 c20 14 41 30 45 37 4 7 20 13 34 13 21 0 23 -3 14
-14z m-271 -96 c0 -21 5 -50 11 -63 9 -20 5 -28 -30 -66 -22 -24 -45 -41 -50
-39 -4 1 -28 20 -51 42 -33 30 -39 40 -29 47 11 7 9 9 -6 7 -11 0 -28 0 -38 0
-17 2 -17 4 -3 17 12 12 13 22 5 41 -9 25 -8 26 17 20 15 -4 32 -2 40 5 19 16
27 6 26 -31 -1 -37 43 -74 58 -49 6 8 4 19 -6 30 -30 33 -9 78 39 79 13 0 17
-8 17 -40z m-180 -214 c5 -13 13 -25 19 -27 6 -3 4 -12 -4 -23 -11 -15 -17
-16 -29 -7 -11 9 -15 7 -20 -15 -9 -33 -1 -41 19 -20 21 20 31 20 39 1 9 -25
-16 -57 -39 -51 -11 3 -35 6 -53 6 -30 0 -32 2 -21 21 6 12 9 39 7 60 -3 30 0
39 12 39 8 0 21 9 28 20 16 27 31 25 42 -4z m488 -2 c16 -11 22 -25 22 -55 0
-21 5 -39 11 -39 6 0 9 -6 7 -12 -5 -15 -87 -18 -105 -4 -7 4 -13 29 -13 55 0
38 4 48 23 57 31 16 30 16 55 -2z m-248 -98 c23 -6 25 -11 22 -54 -4 -55 -24
-77 -54 -61 -11 6 -27 9 -37 6 -14 -3 -16 6 -16 58 l0 62 30 -2 c16 -1 41 -5
55 -9z m-130 -12 c11 -12 11 -18 -2 -30 -14 -14 -17 -14 -32 1 -13 13 -14 20
-5 31 15 18 24 18 39 -2z m266 1 c4 -8 1 -22 -6 -30 -11 -14 -15 -14 -31 1
-14 13 -16 20 -8 31 15 17 38 17 45 -2z"/>
<path d="M765 1070 c-3 -6 1 -7 9 -4 18 7 21 14 7 14 -6 0 -13 -4 -16 -10z"/>
<path d="M698 1043 c7 -3 16 -2 19 1 4 3 -2 6 -13 5 -11 0 -14 -3 -6 -6z"/>
<path d="M920 1040 c-20 -6 -21 -8 -5 -8 11 0 29 3 40 8 25 11 -1 11 -35 0z"/>
<path d="M858 1023 c7 -3 16 -2 19 1 4 3 -2 6 -13 5 -11 0 -14 -3 -6 -6z"/>
<path d="M755 480 c3 -5 8 -10 11 -10 2 0 4 5 4 10 0 6 -5 10 -11 10 -5 0 -7
-4 -4 -10z"/>
<path d="M960 429 c0 -24 4 -38 10 -34 6 3 10 22 10 41 0 19 -4 34 -10 34 -5
0 -10 -18 -10 -41z"/>
<path d="M710 335 c0 -19 5 -35 10 -35 6 0 10 16 10 35 0 19 -4 35 -10 35 -5
0 -10 -16 -10 -35z"/>
<path d="M1751 1136 c-7 -9 -20 -16 -28 -16 -13 0 -13 -3 1 -25 10 -16 16 -46
16 -88 0 -73 14 -96 45 -73 16 12 16 13 1 19 -24 9 -24 134 1 139 15 3 15 5 1
18 -8 9 -17 21 -19 29 -4 10 -8 10 -18 -3z"/>
<path d="M1290 1036 c0 -77 2 -85 24 -99 19 -13 27 -14 41 -3 15 11 14 13 -10
24 -24 11 -26 16 -23 70 l3 57 37 3 c27 2 35 7 31 18 -3 9 -21 14 -54 14 l-49
0 0 -84z"/>
<path d="M1457 1092 c-22 -23 -27 -37 -27 -80 0 -48 3 -54 31 -71 l32 -20 31
25 c30 24 31 26 28 99 l-4 75 -32 0 c-22 0 -41 -9 -59 -28z m63 -72 c0 -38 -3
-70 -6 -70 -3 0 -14 5 -25 10 -15 9 -19 22 -19 70 0 57 1 60 25 60 24 0 25 -2
25 -70z"/>
<path d="M1586 1105 c4 -9 19 -15 39 -15 l32 0 2 -70 c1 -38 -1 -70 -4 -70
-21 0 -45 24 -45 45 0 18 -5 25 -20 25 -16 0 -20 -7 -20 -30 0 -23 7 -35 32
-50 24 -14 35 -16 45 -8 9 7 17 7 26 -1 10 -8 18 -7 32 3 16 12 16 13 1 19
-13 5 -16 21 -16 87 l0 80 -55 0 c-44 0 -53 -3 -49 -15z"/>
<path d="M1967 1092 c-22 -23 -27 -37 -27 -79 0 -44 4 -55 26 -72 27 -21 36
-20 77 12 13 11 17 30 17 91 l0 76 -33 0 c-23 0 -41 -8 -60 -28z m63 -72 c0
-38 -3 -70 -6 -70 -3 0 -14 5 -25 10 -15 9 -19 22 -19 70 0 57 1 60 25 60 24
0 25 -2 25 -70z"/>
<path d="M1300 863 c1 -25 30 -43 69 -43 46 0 54 -18 24 -54 -17 -20 -17 -20
0 -7 16 13 17 9 17 -56 0 -55 4 -73 18 -86 23 -21 36 -21 52 -2 10 12 9 16 -4
21 -13 5 -16 24 -16 120 l0 114 -80 0 c-44 0 -80 -3 -80 -7z"/>
<path d="M1570 845 c0 -22 4 -25 40 -25 22 0 40 3 40 8 -1 19 -30 42 -54 42
-21 0 -26 -5 -26 -25z"/>
<path d="M1710 850 c-23 -17 -24 -22 -21 -111 1 -52 7 -101 12 -111 12 -23 47
-32 65 -17 13 10 12 14 -6 31 -17 16 -20 31 -20 98 l0 80 35 0 35 0 0 -91 c0
-96 10 -129 38 -129 34 0 43 21 22 48 -16 19 -20 40 -20 98 l0 74 34 0 34 0 4
-95 c4 -111 18 -137 64 -116 l27 12 -21 15 c-20 14 -22 24 -22 125 l0 109 -45
0 c-31 0 -47 -5 -51 -15 -4 -8 -10 -15 -15 -15 -5 0 -9 7 -9 15 0 11 -12 15
-44 15 -37 0 -46 -4 -52 -22 l-8 -23 -5 22 c-6 22 -6 22 -31 3z"/>
<path d="M2042 851 c-19 -14 -23 -25 -20 -61 3 -41 4 -43 48 -56 51 -15 70
-36 70 -76 0 -28 0 -28 25 -12 49 32 24 91 -49 119 -43 16 -45 19 -48 61 l-3
43 -23 -18z"/>
<path d="M2090 845 c0 -23 4 -25 45 -25 49 0 50 1 35 31 -8 13 -21 19 -45 19
-31 0 -35 -3 -35 -25z"/>
<path d="M1513 841 c-15 -12 -18 -22 -12 -32 5 -8 9 -50 9 -95 0 -98 14 -125
54 -106 l27 12 -21 22 c-17 19 -20 35 -20 120 0 54 -3 98 -7 98 -5 -1 -18 -9
-30 -19z"/>
<path d="M1318 733 c-25 -4 -28 -8 -28 -44 0 -25 7 -46 20 -59 28 -28 68 -36
87 -18 13 13 10 18 -22 37 -33 19 -37 25 -33 56 2 19 4 34 3 34 0 -1 -12 -4
-27 -6z"/>
<path d="M2032 701 c-8 -5 -12 -21 -10 -37 4 -38 67 -76 92 -55 22 18 20 23
-14 43 -18 10 -30 25 -30 38 0 21 -16 26 -38 11z"/>
<path d="M1503 563 c142 -2 372 -2 510 0 139 1 23 2 -258 2 -280 0 -394 -1
-252 -2z"/>
<path d="M1290 436 c0 -88 3 -106 15 -106 12 0 15 14 15 62 0 69 5 69 36 -5
12 -29 28 -52 35 -52 7 0 22 23 34 52 29 74 35 74 35 5 0 -48 3 -62 15 -62 12
0 15 18 15 106 0 91 -2 105 -16 102 -9 -2 -28 -35 -46 -81 -17 -44 -34 -75
-38 -70 -4 4 -21 40 -38 78 -17 39 -38 71 -46 73 -14 3 -16 -11 -16 -102z"/>
<path d="M1560 458 c-17 -46 -35 -93 -40 -105 -8 -19 -6 -23 9 -23 12 0 21 9
25 25 6 22 12 25 51 25 39 0 47 -4 57 -25 10 -23 38 -35 38 -17 0 4 -16 51
-37 105 -49 124 -61 126 -103 15z m68 -1 c16 -46 16 -47 -18 -47 -33 0 -35 3
-19 49 14 40 22 39 37 -2z"/>
<path d="M1730 433 c0 -85 3 -103 15 -103 11 0 15 12 15 45 0 38 3 45 20 45
13 0 27 -14 40 -40 20 -38 44 -59 56 -47 3 3 -7 27 -22 53 l-27 49 27 39 c28
42 33 66 13 66 -7 0 -21 -19 -32 -42 -16 -33 -26 -44 -47 -46 -27 -3 -28 -1
-28 41 0 32 -4 44 -15 44 -12 0 -15 -18 -15 -104z"/>
<path d="M1910 433 l0 -103 65 0 c51 0 65 3 65 15 0 11 -12 15 -51 15 l-50 0
3 33 c3 31 5 32 46 31 29 0 42 3 42 13 0 9 -14 13 -45 13 -43 0 -45 1 -45 30
0 29 1 30 51 30 35 0 49 4 47 12 -3 8 -27 13 -66 13 l-62 1 0 -103z"/>
<path d="M2070 436 c0 -86 3 -106 14 -106 10 0 16 13 18 38 3 32 6 37 28 37
19 0 29 -9 43 -37 9 -21 24 -38 32 -38 19 0 19 13 -1 51 -14 28 -14 32 0 48
20 22 21 61 2 86 -10 13 -30 20 -75 23 l-61 4 0 -106z m114 52 c17 -27 -5 -52
-48 -56 l-36 -3 0 41 0 41 36 -3 c22 -2 42 -10 48 -20z"/>
<path d="M1292 298 c-7 -7 -12 -16 -12 -22 0 -5 6 -3 13 6 6 9 21 18 32 21 20
5 20 5 0 6 -12 0 -26 -4 -33 -11z"/>
<path d="M1372 298 c-7 -7 -12 -17 -12 -22 0 -6 5 -3 11 7 12 20 39 22 59 5
12 -11 12 -10 1 5 -16 20 -42 22 -59 5z"/>
<path d="M1602 274 l-19 -36 -13 31 c-17 42 -30 39 -29 -6 1 -36 2 -37 8 -9
l6 30 13 -29 c13 -29 14 -29 28 -10 8 10 15 24 15 29 1 6 5 -2 9 -19 7 -28 8
-27 9 13 0 23 -1 42 -4 42 -2 0 -13 -16 -23 -36z"/>
<path d="M1732 270 c0 -25 2 -37 5 -27 5 18 5 18 26 0 l22 -18 -19 23 c-19 22
-19 22 0 45 l19 22 -22 -18 c-21 -18 -21 -18 -26 0 -3 10 -5 -2 -5 -27z"/>
<path d="M1801 268 c0 -24 3 -36 6 -28 3 8 11 18 17 22 8 5 7 8 -1 8 -20 0
-15 28 5 33 13 4 11 5 -5 6 -21 1 -23 -4 -22 -41z"/>
<path d="M1861 268 c1 -24 3 -35 6 -25 6 21 19 22 31 1 6 -11 8 -5 8 23 -2 31
-6 39 -24 41 -20 3 -22 -1 -21 -40z m37 20 c-6 -18 -28 -21 -28 -4 0 9 7 16
16 16 9 0 14 -5 12 -12z"/>
<path d="M1966 302 c-3 -5 8 -6 25 -4 16 2 29 6 29 8 0 8 -49 4 -54 -4z"/>
<path d="M2042 298 c-29 -29 7 -86 47 -73 26 8 38 50 21 70 -15 18 -51 20 -68
3z m65 -14 c8 -22 -10 -49 -32 -49 -22 0 -40 27 -32 49 8 21 56 21 64 0z"/>
<path d="M2141 303 c-1 -13 31 -73 39 -73 9 0 44 70 38 75 -3 3 -11 -8 -18
-25 -16 -38 -23 -38 -43 3 -8 17 -16 27 -16 20z"/>
<path d="M1471 268 c-6 -17 -9 -34 -6 -36 3 -3 5 0 5 6 0 7 9 12 20 12 11 0
20 -5 20 -12 0 -6 2 -9 5 -6 7 7 -15 68 -25 68 -4 0 -13 -14 -19 -32z m29 2
c0 -5 -4 -10 -10 -10 -5 0 -10 5 -10 10 0 6 5 10 10 10 6 0 10 -4 10 -10z"/>
<path d="M1661 268 c-6 -17 -9 -34 -6 -36 3 -3 5 0 5 6 0 7 9 12 20 12 11 0
20 -5 20 -12 0 -6 2 -9 5 -6 7 7 -15 68 -25 68 -4 0 -13 -14 -19 -32z m29 2
c0 -5 -4 -10 -10 -10 -5 0 -10 5 -10 10 0 6 5 10 10 10 6 0 10 -4 10 -10z"/>
<path d="M1951 269 c-1 -19 30 -49 50 -48 8 0 4 4 -9 9 -12 5 -27 20 -32 32
-5 15 -9 17 -9 7z"/>
<path d="M1280 251 c0 -6 4 -13 10 -16 6 -3 7 1 4 9 -7 18 -14 21 -14 7z"/>
<path d="M1360 251 c0 -6 4 -13 10 -16 6 -3 7 1 4 9 -7 18 -14 21 -14 7z"/>
<path d="M1426 243 c-6 -14 -5 -15 5 -6 7 7 10 15 7 18 -3 3 -9 -2 -12 -12z"/>
<path d="M1318 223 c7 -3 16 -2 19 1 4 3 -2 6 -13 5 -11 0 -14 -3 -6 -6z"/>
</g>
</svg>
